<?xml version="1.0" encoding="UTF-8" standalone="no"?>
<svg
   version="1.1"
   viewBox="0 0 24 24"
   id="svg32"
   sodipodi:docname="mathub-app-icon.svg"
   inkscape:version="1.3.2 (091e20e, 2023-11-25)"
   xmlns:inkscape="http://www.inkscape.org/namespaces/inkscape"
   xmlns:sodipodi="http://sodipodi.sourceforge.net/DTD/sodipodi-0.dtd"
   xmlns="http://www.w3.org/2000/svg"
   xmlns:svg="http://www.w3.org/2000/svg">
  <defs
     id="defs32" />
  <sodipodi:namedview
     id="namedview32"
     pagecolor="#505050"
     bordercolor="#eeeeee"
     borderopacity="1"
     inkscape:showpageshadow="0"
     inkscape:pageopacity="0"
     inkscape:pagecheckerboard="0"
     inkscape:deskcolor="#505050"
     showgrid="true"
     inkscape:zoom="27.49743"
     inkscape:cx="9.5099795"
     inkscape:cy="11.873837"
     inkscape:window-width="2560"
     inkscape:window-height="1440"
     inkscape:window-x="1728"
     inkscape:window-y="0"
     inkscape:window-maximized="0"
     inkscape:current-layer="svg32">
    <inkscape:grid
       id="grid32"
       units="px"
       originx="0"
       originy="0"
       spacingx="1"
       spacingy="1"
       empcolor="#0099e5"
       empopacity="0.30196078"
       color="#0099e5"
       opacity="0.14901961"
       empspacing="5"
       dotted="false"
       gridanglex="30"
       gridanglez="30"
       visible="true" />
  </sodipodi:namedview>
  <rect
     x="1.4840907"
     y="12.484091"
     width="21.031818"
     height="10.031909"
     rx="2.1031818"
     ry="2.5079772"
     fill="none"
     stroke="#000000"
     stroke-width="0.968181"
     id="rect1"
     style="stroke-linecap:round;stroke-linejoin:round;stroke-width:1;stroke-dasharray:none" />
  <g
     transform="matrix(0.97435996,0,0,1.0030232,0.99942173,-0.4253101)"
     id="g2"
     style="fill:none;stroke:#000000;stroke-width:1.5;stroke-linecap:round;stroke-linejoin:round">
    <path
       d="M 15.119,8.8303 20.7813,3.168"
       id="path1" />
    <path
       d="m 15.119,3.168 5.6623,5.6623"
       id="path2" />
  </g>
  <g
     transform="matrix(0.98426072,0,0,0.98460712,-1.0730583,0.06957806)"
     id="g4"
     style="fill:none;stroke:#000000;stroke-width:1.5;stroke-linecap:round;stroke-linejoin:round">
    <path
       d="M 6.6782,2.7104 V 8.3221"
       id="path3" />
    <path
       d="M 9.4841,5.5163 H 3.8724"
       id="path4" />
  </g>
  <path
     d="M 2.0315296,16.000105 H 22.024049"
     fill="none"
     stroke="#000000"
     id="path5"
     style="stroke-width:1.02989;stroke-linecap:round;stroke-linejoin:round" />
  <path
     d="m 4.9698,12.744 v 9.5072"
     fill="none"
     stroke="#000000"
     stroke-width="0.5"
     id="path6"
     style="stroke-linecap:round;stroke-linejoin:round" />
  <g
     stroke-width="0.65226"
     id="g10"
     style="stroke-linecap:round;stroke-linejoin:round"
     transform="translate(0,0.9999997)">
    <path
       d="m 5.1673,19.073 c -0.083431,-0.0074 -0.10684,-0.0047 -0.25882,0.0012 -0.33214,0.02862 -0.57885,0.07317 -0.77671,0.14705 -0.098931,0.03695 -0.18919,0.0797 -0.27178,0.15881 -0.082587,0.07912 -0.14904,0.22806 -0.11037,0.35998 0.038672,0.13191 0.13716,0.20788 0.22487,0.2588 0.087718,0.05092 0.17946,0.08332 0.28282,0.11058 0.20671,0.05452 0.46097,0.08547 0.77533,0.09293 0.00323,3.8e-5 0.00644,3.8e-5 0.00966,0 0.34108,0 0.61804,-0.03341 0.84017,-0.09882 0.11107,-0.0327 0.20936,-0.07272 0.30075,-0.13646 C 6.274607,19.90334 6.37323,19.79993 6.38326,19.65533 6.39329,19.51073 6.296911,19.38206 6.20115,19.31183 6.105393,19.24156 6.0029,19.20217 5.88522,19.16946 5.64987,19.10405 5.58762,19.08519 5.16729,19.073 Z"
       color="#000000"
       style="-inkscape-stroke:none"
       id="path7" />
    <path
       d="m 5.105,17.484 c -0.083431,-0.0074 -0.10684,-0.0047 -0.25882,0.0012 -0.33214,0.02862 -0.57885,0.07317 -0.77671,0.14705 -0.098931,0.03695 -0.18919,0.0797 -0.27178,0.15881 -0.082587,0.07912 -0.14904,0.22806 -0.11037,0.35998 0.038672,0.13191 0.13716,0.20788 0.22487,0.2588 0.087718,0.05092 0.17946,0.08332 0.28282,0.11058 0.20671,0.05452 0.46097,0.08547 0.77533,0.09293 0.00323,3.8e-5 0.00644,3.8e-5 0.00966,0 0.34108,0 0.61804,-0.03341 0.84017,-0.09882 0.11107,-0.0327 0.20936,-0.07272 0.30075,-0.13646 C 6.212307,18.31434 6.31093,18.21093 6.32096,18.06633 6.33099,17.92173 6.234611,17.79306 6.13885,17.72283 6.043093,17.65256 5.9406,17.61317 5.82292,17.58046 5.58757,17.51505 5.52532,17.49619 5.10499,17.484 Z"
       color="#000000"
       style="-inkscape-stroke:none"
       id="path8" />
    <path
       d="m 5.0427,15.958 c -0.083431,-0.0074 -0.10684,-0.0047 -0.25882,0.0012 -0.33214,0.02862 -0.57885,0.07317 -0.77671,0.14705 -0.098931,0.03695 -0.18919,0.0797 -0.27178,0.15881 -0.082587,0.07912 -0.14904,0.22806 -0.11037,0.35998 0.038672,0.13191 0.13716,0.20788 0.22487,0.2588 0.087718,0.05092 0.17946,0.08332 0.28282,0.11058 0.20671,0.05452 0.46097,0.08547 0.77533,0.09293 0.00323,3.8e-5 0.00644,3.8e-5 0.00966,0 0.34108,0 0.61804,-0.03341 0.84017,-0.09882 0.11107,-0.0327 0.20936,-0.07272 0.30075,-0.13646 C 6.150007,16.78834 6.24863,16.68493 6.25866,16.54033 6.26869,16.39573 6.172311,16.26706 6.07655,16.19683 5.980793,16.12656 5.8783,16.08717 5.76062,16.05446 5.52527,15.98905 5.46302,15.97019 5.04269,15.958 Z"
       color="#000000"
       style="-inkscape-stroke:none"
       id="path9" />
    <path
       d="m 5.0427,12.718 c -0.083431,-0.0074 -0.10684,-0.0047 -0.25882,0.0012 -0.33214,0.02862 -0.57885,0.07317 -0.77671,0.14705 -0.098931,0.03695 -0.18919,0.0797 -0.27178,0.15881 -0.082587,0.07912 -0.14904,0.22806 -0.11037,0.35998 0.038672,0.13191 0.13716,0.20788 0.22487,0.2588 0.087718,0.05092 0.17946,0.08332 0.28282,0.11058 0.20671,0.05452 0.46097,0.08547 0.77533,0.09293 0.00323,3.8e-5 0.00644,3.8e-5 0.00966,0 0.34108,0 0.61804,-0.03341 0.84017,-0.09882 0.11107,-0.0327 0.20936,-0.07272 0.30075,-0.13646 C 6.150007,13.54834 6.24863,13.44493 6.25866,13.30033 6.26869,13.15573 6.172311,13.02706 6.07655,12.95683 5.980793,12.88656 5.8783,12.84717 5.76062,12.81446 5.52527,12.74905 5.46302,12.73019 5.04269,12.718 Z"
       color="#000000"
       style="-inkscape-stroke:none"
       id="path10" />
  </g>
  <g
     transform="translate(3.4644,0.9999997)"
     id="g16"
     style="stroke-linecap:round;stroke-linejoin:round">
    <path
       d="m 4.9698,11.744 v 9.5072"
       fill="none"
       stroke="#000000"
       stroke-width="0.5"
       id="path11" />
    <g
       stroke-width="0.65226"
       id="g15">
      <path
         d="m 5.1673,19.073 c -0.083431,-0.0074 -0.10684,-0.0047 -0.25882,0.0012 -0.33214,0.02862 -0.57885,0.07317 -0.77671,0.14705 -0.098931,0.03695 -0.18919,0.0797 -0.27178,0.15881 -0.082587,0.07912 -0.14904,0.22806 -0.11037,0.35998 0.038672,0.13191 0.13716,0.20788 0.22487,0.2588 0.087718,0.05092 0.17946,0.08332 0.28282,0.11058 0.20671,0.05452 0.46097,0.08547 0.77533,0.09293 0.00323,3.8e-5 0.00644,3.8e-5 0.00966,0 0.34108,0 0.61804,-0.03341 0.84017,-0.09882 0.11107,-0.0327 0.20936,-0.07272 0.30075,-0.13646 C 6.274607,19.90334 6.37323,19.79993 6.38326,19.65533 6.39329,19.51073 6.296911,19.38206 6.20115,19.31183 6.105393,19.24156 6.0029,19.20217 5.88522,19.16946 5.64987,19.10405 5.58762,19.08519 5.16729,19.073 Z"
         color="#000000"
         style="-inkscape-stroke:none"
         id="path12" />
      <path
         d="m 5.105,17.484 c -0.083431,-0.0074 -0.10684,-0.0047 -0.25882,0.0012 -0.33214,0.02862 -0.57885,0.07317 -0.77671,0.14705 -0.098931,0.03695 -0.18919,0.0797 -0.27178,0.15881 -0.082587,0.07912 -0.14904,0.22806 -0.11037,0.35998 0.038672,0.13191 0.13716,0.20788 0.22487,0.2588 0.087718,0.05092 0.17946,0.08332 0.28282,0.11058 0.20671,0.05452 0.46097,0.08547 0.77533,0.09293 0.00323,3.8e-5 0.00644,3.8e-5 0.00966,0 0.34108,0 0.61804,-0.03341 0.84017,-0.09882 0.11107,-0.0327 0.20936,-0.07272 0.30075,-0.13646 C 6.212307,18.31434 6.31093,18.21093 6.32096,18.06633 6.33099,17.92173 6.234611,17.79306 6.13885,17.72283 6.043093,17.65256 5.9406,17.61317 5.82292,17.58046 5.58757,17.51505 5.52532,17.49619 5.10499,17.484 Z"
         color="#000000"
         style="-inkscape-stroke:none"
         id="path13" />
      <path
         d="m 5.0427,15.958 c -0.083431,-0.0074 -0.10684,-0.0047 -0.25882,0.0012 -0.33214,0.02862 -0.57885,0.07317 -0.77671,0.14705 -0.098931,0.03695 -0.18919,0.0797 -0.27178,0.15881 -0.082587,0.07912 -0.14904,0.22806 -0.11037,0.35998 0.038672,0.13191 0.13716,0.20788 0.22487,0.2588 0.087718,0.05092 0.17946,0.08332 0.28282,0.11058 0.20671,0.05452 0.46097,0.08547 0.77533,0.09293 0.00323,3.8e-5 0.00644,3.8e-5 0.00966,0 0.34108,0 0.61804,-0.03341 0.84017,-0.09882 0.11107,-0.0327 0.20936,-0.07272 0.30075,-0.13646 C 6.150007,16.78834 6.24863,16.68493 6.25866,16.54033 6.26869,16.39573 6.172311,16.26706 6.07655,16.19683 5.980793,16.12656 5.8783,16.08717 5.76062,16.05446 5.52527,15.98905 5.46302,15.97019 5.04269,15.958 Z"
         color="#000000"
         style="-inkscape-stroke:none"
         id="path14" />
      <path
         d="m 5.0427,12.718 c -0.083431,-0.0074 -0.10684,-0.0047 -0.25882,0.0012 -0.33214,0.02862 -0.57885,0.07317 -0.77671,0.14705 -0.098931,0.03695 -0.18919,0.0797 -0.27178,0.15881 -0.082587,0.07912 -0.14904,0.22806 -0.11037,0.35998 0.038672,0.13191 0.13716,0.20788 0.22487,0.2588 0.087718,0.05092 0.17946,0.08332 0.28282,0.11058 0.20671,0.05452 0.46097,0.08547 0.77533,0.09293 0.00323,3.8e-5 0.00644,3.8e-5 0.00966,0 0.34108,0 0.61804,-0.03341 0.84017,-0.09882 0.11107,-0.0327 0.20936,-0.07272 0.30075,-0.13646 C 6.150007,13.54834 6.24863,13.44493 6.25866,13.30033 6.26869,13.15573 6.172311,13.02706 6.07655,12.95683 5.980793,12.88656 5.8783,12.84717 5.76062,12.81446 5.52527,12.74905 5.46302,12.73019 5.04269,12.718 Z"
         color="#000000"
         style="-inkscape-stroke:none"
         id="path15" />
    </g>
  </g>
  <g
     transform="translate(7.0702,0.9999997)"
     id="g21"
     style="stroke-linecap:round;stroke-linejoin:round">
    <path
       d="m 4.9698,11.744 v 9.5072"
       fill="none"
       stroke="#000000"
       stroke-width="0.5"
       id="path16" />
    <g
       stroke-width="0.65226"
       id="g20">
      <path
         d="m 5.1673,19.073 c -0.083431,-0.0074 -0.10684,-0.0047 -0.25882,0.0012 -0.33214,0.02862 -0.57885,0.07317 -0.77671,0.14705 -0.098931,0.03695 -0.18919,0.0797 -0.27178,0.15881 -0.082587,0.07912 -0.14904,0.22806 -0.11037,0.35998 0.038672,0.13191 0.13716,0.20788 0.22487,0.2588 0.087718,0.05092 0.17946,0.08332 0.28282,0.11058 0.20671,0.05452 0.46097,0.08547 0.77533,0.09293 0.00323,3.8e-5 0.00644,3.8e-5 0.00966,0 0.34108,0 0.61804,-0.03341 0.84017,-0.09882 0.11107,-0.0327 0.20936,-0.07272 0.30075,-0.13646 C 6.274607,19.90334 6.37323,19.79993 6.38326,19.65533 6.39329,19.51073 6.296911,19.38206 6.20115,19.31183 6.105393,19.24156 6.0029,19.20217 5.88522,19.16946 5.64987,19.10405 5.58762,19.08519 5.16729,19.073 Z"
         color="#000000"
         style="-inkscape-stroke:none"
         id="path17" />
      <path
         d="m 5.105,17.484 c -0.083431,-0.0074 -0.10684,-0.0047 -0.25882,0.0012 -0.33214,0.02862 -0.57885,0.07317 -0.77671,0.14705 -0.098931,0.03695 -0.18919,0.0797 -0.27178,0.15881 -0.082587,0.07912 -0.14904,0.22806 -0.11037,0.35998 0.038672,0.13191 0.13716,0.20788 0.22487,0.2588 0.087718,0.05092 0.17946,0.08332 0.28282,0.11058 0.20671,0.05452 0.46097,0.08547 0.77533,0.09293 0.00323,3.8e-5 0.00644,3.8e-5 0.00966,0 0.34108,0 0.61804,-0.03341 0.84017,-0.09882 0.11107,-0.0327 0.20936,-0.07272 0.30075,-0.13646 C 6.212307,18.31434 6.31093,18.21093 6.32096,18.06633 6.33099,17.92173 6.234611,17.79306 6.13885,17.72283 6.043093,17.65256 5.9406,17.61317 5.82292,17.58046 5.58757,17.51505 5.52532,17.49619 5.10499,17.484 Z"
         color="#000000"
         style="-inkscape-stroke:none"
         id="path18" />
      <path
         d="m 5.0427,15.958 c -0.083431,-0.0074 -0.10684,-0.0047 -0.25882,0.0012 -0.33214,0.02862 -0.57885,0.07317 -0.77671,0.14705 -0.098931,0.03695 -0.18919,0.0797 -0.27178,0.15881 -0.082587,0.07912 -0.14904,0.22806 -0.11037,0.35998 0.038672,0.13191 0.13716,0.20788 0.22487,0.2588 0.087718,0.05092 0.17946,0.08332 0.28282,0.11058 0.20671,0.05452 0.46097,0.08547 0.77533,0.09293 0.00323,3.8e-5 0.00644,3.8e-5 0.00966,0 0.34108,0 0.61804,-0.03341 0.84017,-0.09882 0.11107,-0.0327 0.20936,-0.07272 0.30075,-0.13646 C 6.150007,16.78834 6.24863,16.68493 6.25866,16.54033 6.26869,16.39573 6.172311,16.26706 6.07655,16.19683 5.980793,16.12656 5.8783,16.08717 5.76062,16.05446 5.52527,15.98905 5.46302,15.97019 5.04269,15.958 Z"
         color="#000000"
         style="-inkscape-stroke:none"
         id="path19" />
      <path
         d="m 5.0427,12.718 c -0.083431,-0.0074 -0.10684,-0.0047 -0.25882,0.0012 -0.33214,0.02862 -0.57885,0.07317 -0.77671,0.14705 -0.098931,0.03695 -0.18919,0.0797 -0.27178,0.15881 -0.082587,0.07912 -0.14904,0.22806 -0.11037,0.35998 0.038672,0.13191 0.13716,0.20788 0.22487,0.2588 0.087718,0.05092 0.17946,0.08332 0.28282,0.11058 0.20671,0.05452 0.46097,0.08547 0.77533,0.09293 0.00323,3.8e-5 0.00644,3.8e-5 0.00966,0 0.34108,0 0.61804,-0.03341 0.84017,-0.09882 0.11107,-0.0327 0.20936,-0.07272 0.30075,-0.13646 C 6.150007,13.54834 6.24863,13.44493 6.25866,13.30033 6.26869,13.15573 6.172311,13.02706 6.07655,12.95683 5.980793,12.88656 5.8783,12.84717 5.76062,12.81446 5.52527,12.74905 5.46302,12.73019 5.04269,12.718 Z"
         color="#000000"
         style="-inkscape-stroke:none"
         id="path20" />
    </g>
  </g>
  <g
     transform="translate(10.676,0.9999997)"
     id="g26"
     style="stroke-linecap:round;stroke-linejoin:round">
    <path
       d="m 4.9698,11.744 v 9.5072"
       fill="none"
       stroke="#000000"
       stroke-width="0.5"
       id="path21" />
    <g
       stroke-width="0.65226"
       id="g25">
      <path
         d="m 5.1673,19.073 c -0.083431,-0.0074 -0.10684,-0.0047 -0.25882,0.0012 -0.33214,0.02862 -0.57885,0.07317 -0.77671,0.14705 -0.098931,0.03695 -0.18919,0.0797 -0.27178,0.15881 -0.082587,0.07912 -0.14904,0.22806 -0.11037,0.35998 0.038672,0.13191 0.13716,0.20788 0.22487,0.2588 0.087718,0.05092 0.17946,0.08332 0.28282,0.11058 0.20671,0.05452 0.46097,0.08547 0.77533,0.09293 0.00323,3.8e-5 0.00644,3.8e-5 0.00966,0 0.34108,0 0.61804,-0.03341 0.84017,-0.09882 0.11107,-0.0327 0.20936,-0.07272 0.30075,-0.13646 C 6.274607,19.90334 6.37323,19.79993 6.38326,19.65533 6.39329,19.51073 6.296911,19.38206 6.20115,19.31183 6.105393,19.24156 6.0029,19.20217 5.88522,19.16946 5.64987,19.10405 5.58762,19.08519 5.16729,19.073 Z"
         color="#000000"
         style="-inkscape-stroke:none"
         id="path22" />
      <path
         d="m 5.105,17.484 c -0.083431,-0.0074 -0.10684,-0.0047 -0.25882,0.0012 -0.33214,0.02862 -0.57885,0.07317 -0.77671,0.14705 -0.098931,0.03695 -0.18919,0.0797 -0.27178,0.15881 -0.082587,0.07912 -0.14904,0.22806 -0.11037,0.35998 0.038672,0.13191 0.13716,0.20788 0.22487,0.2588 0.087718,0.05092 0.17946,0.08332 0.28282,0.11058 0.20671,0.05452 0.46097,0.08547 0.77533,0.09293 0.00323,3.8e-5 0.00644,3.8e-5 0.00966,0 0.34108,0 0.61804,-0.03341 0.84017,-0.09882 0.11107,-0.0327 0.20936,-0.07272 0.30075,-0.13646 C 6.212307,18.31434 6.31093,18.21093 6.32096,18.06633 6.33099,17.92173 6.234611,17.79306 6.13885,17.72283 6.043093,17.65256 5.9406,17.61317 5.82292,17.58046 5.58757,17.51505 5.52532,17.49619 5.10499,17.484 Z"
         color="#000000"
         style="-inkscape-stroke:none"
         id="path23" />
      <path
         d="m 5.0427,15.958 c -0.083431,-0.0074 -0.10684,-0.0047 -0.25882,0.0012 -0.33214,0.02862 -0.57885,0.07317 -0.77671,0.14705 -0.098931,0.03695 -0.18919,0.0797 -0.27178,0.15881 -0.082587,0.07912 -0.14904,0.22806 -0.11037,0.35998 0.038672,0.13191 0.13716,0.20788 0.22487,0.2588 0.087718,0.05092 0.17946,0.08332 0.28282,0.11058 0.20671,0.05452 0.46097,0.08547 0.77533,0.09293 0.00323,3.8e-5 0.00644,3.8e-5 0.00966,0 0.34108,0 0.61804,-0.03341 0.84017,-0.09882 0.11107,-0.0327 0.20936,-0.07272 0.30075,-0.13646 C 6.150007,16.78834 6.24863,16.68493 6.25866,16.54033 6.26869,16.39573 6.172311,16.26706 6.07655,16.19683 5.980793,16.12656 5.8783,16.08717 5.76062,16.05446 5.52527,15.98905 5.46302,15.97019 5.04269,15.958 Z"
         color="#000000"
         style="-inkscape-stroke:none"
         id="path24" />
      <path
         d="m 5.0427,12.718 c -0.083431,-0.0074 -0.10684,-0.0047 -0.25882,0.0012 -0.33214,0.02862 -0.57885,0.07317 -0.77671,0.14705 -0.098931,0.03695 -0.18919,0.0797 -0.27178,0.15881 -0.082587,0.07912 -0.14904,0.22806 -0.11037,0.35998 0.038672,0.13191 0.13716,0.20788 0.22487,0.2588 0.087718,0.05092 0.17946,0.08332 0.28282,0.11058 0.20671,0.05452 0.46097,0.08547 0.77533,0.09293 0.00323,3.8e-5 0.00644,3.8e-5 0.00966,0 0.34108,0 0.61804,-0.03341 0.84017,-0.09882 0.11107,-0.0327 0.20936,-0.07272 0.30075,-0.13646 C 6.150007,13.54834 6.24863,13.44493 6.25866,13.30033 6.26869,13.15573 6.172311,13.02706 6.07655,12.95683 5.980793,12.88656 5.8783,12.84717 5.76062,12.81446 5.52527,12.74905 5.46302,12.73019 5.04269,12.718 Z"
         color="#000000"
         style="-inkscape-stroke:none"
         id="path25" />
    </g>
  </g>
  <g
     transform="translate(13.964,0.9999997)"
     id="g31"
     style="stroke-linecap:round;stroke-linejoin:round">
    <path
       d="m 4.9698,11.744 v 9.5072"
       fill="none"
       stroke="#000000"
       stroke-width="0.5"
       id="path26" />
    <g
       stroke-width="0.65226"
       id="g30">
      <path
         d="m 5.1673,19.073 c -0.083431,-0.0074 -0.10684,-0.0047 -0.25882,0.0012 -0.33214,0.02862 -0.57885,0.07317 -0.77671,0.14705 -0.098931,0.03695 -0.18919,0.0797 -0.27178,0.15881 -0.082587,0.07912 -0.14904,0.22806 -0.11037,0.35998 0.038672,0.13191 0.13716,0.20788 0.22487,0.2588 0.087718,0.05092 0.17946,0.08332 0.28282,0.11058 0.20671,0.05452 0.46097,0.08547 0.77533,0.09293 0.00323,3.8e-5 0.00644,3.8e-5 0.00966,0 0.34108,0 0.61804,-0.03341 0.84017,-0.09882 0.11107,-0.0327 0.20936,-0.07272 0.30075,-0.13646 C 6.274607,19.90334 6.37323,19.79993 6.38326,19.65533 6.39329,19.51073 6.296911,19.38206 6.20115,19.31183 6.105393,19.24156 6.0029,19.20217 5.88522,19.16946 5.64987,19.10405 5.58762,19.08519 5.16729,19.073 Z"
         color="#000000"
         style="-inkscape-stroke:none"
         id="path27" />
      <path
         d="m 5.105,17.484 c -0.083431,-0.0074 -0.10684,-0.0047 -0.25882,0.0012 -0.33214,0.02862 -0.57885,0.07317 -0.77671,0.14705 -0.098931,0.03695 -0.18919,0.0797 -0.27178,0.15881 -0.082587,0.07912 -0.14904,0.22806 -0.11037,0.35998 0.038672,0.13191 0.13716,0.20788 0.22487,0.2588 0.087718,0.05092 0.17946,0.08332 0.28282,0.11058 0.20671,0.05452 0.46097,0.08547 0.77533,0.09293 0.00323,3.8e-5 0.00644,3.8e-5 0.00966,0 0.34108,0 0.61804,-0.03341 0.84017,-0.09882 0.11107,-0.0327 0.20936,-0.07272 0.30075,-0.13646 C 6.212307,18.31434 6.31093,18.21093 6.32096,18.06633 6.33099,17.92173 6.234611,17.79306 6.13885,17.72283 6.043093,17.65256 5.9406,17.61317 5.82292,17.58046 5.58757,17.51505 5.52532,17.49619 5.10499,17.484 Z"
         color="#000000"
         style="-inkscape-stroke:none"
         id="path28" />
      <path
         d="m 5.0427,15.958 c -0.083431,-0.0074 -0.10684,-0.0047 -0.25882,0.0012 -0.33214,0.02862 -0.57885,0.07317 -0.77671,0.14705 -0.098931,0.03695 -0.18919,0.0797 -0.27178,0.15881 -0.082587,0.07912 -0.14904,0.22806 -0.11037,0.35998 0.038672,0.13191 0.13716,0.20788 0.22487,0.2588 0.087718,0.05092 0.17946,0.08332 0.28282,0.11058 0.20671,0.05452 0.46097,0.08547 0.77533,0.09293 0.00323,3.8e-5 0.00644,3.8e-5 0.00966,0 0.34108,0 0.61804,-0.03341 0.84017,-0.09882 0.11107,-0.0327 0.20936,-0.07272 0.30075,-0.13646 C 6.150007,16.78834 6.24863,16.68493 6.25866,16.54033 6.26869,16.39573 6.172311,16.26706 6.07655,16.19683 5.980793,16.12656 5.8783,16.08717 5.76062,16.05446 5.52527,15.98905 5.46302,15.97019 5.04269,15.958 Z"
         color="#000000"
         style="-inkscape-stroke:none"
         id="path29" />
      <path
         d="m 5.0427,12.718 c -0.083431,-0.0074 -0.10684,-0.0047 -0.25882,0.0012 -0.33214,0.02862 -0.57885,0.07317 -0.77671,0.14705 -0.098931,0.03695 -0.18919,0.0797 -0.27178,0.15881 -0.082587,0.07912 -0.14904,0.22806 -0.11037,0.35998 0.038672,0.13191 0.13716,0.20788 0.22487,0.2588 0.087718,0.05092 0.17946,0.08332 0.28282,0.11058 0.20671,0.05452 0.46097,0.08547 0.77533,0.09293 0.00323,3.8e-5 0.00644,3.8e-5 0.00966,0 0.34108,0 0.61804,-0.03341 0.84017,-0.09882 0.11107,-0.0327 0.20936,-0.07272 0.30075,-0.13646 C 6.150007,13.54834 6.24863,13.44493 6.25866,13.30033 6.26869,13.15573 6.172311,13.02706 6.07655,12.95683 5.980793,12.88656 5.8783,12.84717 5.76062,12.81446 5.52527,12.74905 5.46302,12.73019 5.04269,12.718 Z"
         color="#000000"
         style="-inkscape-stroke:none"
         id="path30" />
    </g>
  </g>
</svg>
